<svg xmlns="http://www.w3.org/2000/svg" width="512" height="512" viewBox="0 0 512 512" version="1.1"><path d="" stroke="none" fill="#080404" fill-rule="evenodd"/><path d="M 477.191 111.986 C 465.643 117.450, 454.325 130.343, 449.919 143.054 C 447.462 150.143, 447.143 158.641, 447.851 198 C 448.164 215.370, 447.971 218.374, 446.085 225.500 C 439.040 252.126, 418.940 275.064, 401.175 276.752 C 398.604 276.997, 393.125 276.484, 389 275.613 C 366.452 270.854, 333.452 271.254, 260.500 277.173 C 227.825 279.824, 216.148 280.350, 188.500 280.419 C 160.040 280.489, 154.193 280.242, 146 278.623 C 140.775 277.591, 135.365 276.542, 133.978 276.293 C 131.660 275.877, 131.194 276.465, 128.252 283.514 C 120.330 302.492, 103.780 325.484, 85.899 342.352 L 75.711 351.964 78.245 357.732 C 79.639 360.904, 81.351 365.300, 82.048 367.500 C 84.453 375.083, 93.154 395.516, 96.739 402 C 102.899 413.141, 111.346 425.005, 122.632 438.371 C 128.609 445.450, 135.885 454.225, 138.800 457.871 C 144.514 465.018, 153.155 481.576, 155.161 489.223 C 156.314 493.618, 156.248 494.107, 154.200 496.287 C 152.990 497.575, 152 499.837, 152 501.314 L 152 504 163.881 504 L 175.763 504 178.237 500.750 C 184.260 492.839, 185.394 489.231, 185.818 476.633 C 186.274 463.102, 184.948 450.359, 181.436 434.507 C 180.096 428.460, 179 422.592, 179 421.466 C 179 419.449, 179.452 419.417, 209.750 419.347 C 240.061 419.277, 258.112 418.433, 293.500 415.430 C 310.325 414.003, 329.917 411.739, 336.594 410.452 C 339.239 409.942, 341.250 411.477, 359 427.550 C 369.725 437.262, 378.641 446.039, 378.813 447.056 C 378.986 448.073, 377.315 458.324, 375.101 469.837 C 371.356 489.316, 370.865 490.981, 368.038 493.808 C 365.071 496.775, 364.380 499.222, 365.607 502.418 C 366.115 503.743, 368.231 504, 378.632 504 L 391.051 504 395.052 497.750 C 400.555 489.156, 411.008 467.557, 415.489 455.521 C 419.854 443.796, 419.862 440.244, 415.561 422.500 C 411.721 406.659, 411.210 394.110, 413.824 379.897 C 418.059 356.876, 419.683 333.454, 418.011 319.531 C 417.095 311.905, 417.090 309.470, 417.988 309.171 C 422.034 307.822, 435.861 297.185, 443.528 289.522 C 457.676 275.383, 468.250 257.865, 473.042 240.628 C 476.517 228.129, 477.113 218.371, 475.810 195.341 C 473.923 161.982, 475.425 157.272, 492.040 144.469 C 503.999 135.254, 507 131.483, 507 125.668 C 507 111.179, 492.736 104.632, 477.191 111.986 M 59.550 220.945 C 58.582 222.015, 56.878 227.041, 55.762 232.116 L 53.735 241.341 43.060 251.921 C 31.210 263.665, 27.923 269.034, 25.549 280.524 C 24.275 286.690, 23.616 287.928, 19.875 291.181 C 16.003 294.549, 15.468 294.741, 13.599 293.431 C 9.215 290.361, 3.750 293.153, 3.750 298.464 C 3.750 301.969, 5.721 304, 9.122 304 C 11.486 304, 12 304.425, 12 306.378 C 12 310.518, 14.977 316.096, 20.050 321.460 C 27.445 329.279, 31.860 331.148, 60.591 338.628 C 62.266 339.064, 64.685 337.018, 72.762 328.336 C 92.529 307.089, 104.312 291.633, 111.719 277.237 L 116.032 268.856 111.704 263.678 C 109.324 260.830, 104.409 254.675, 100.781 250 C 92.500 239.328, 84.697 231.742, 74.645 224.589 C 66.165 218.555, 62.511 217.673, 59.550 220.945 M 35.238 280.162 C 33.067 282.333, 33.770 285.938, 36.617 287.235 C 38.932 288.290, 39.456 288.155, 41.144 286.070 C 42.821 283.999, 42.884 283.457, 41.662 281.606 C 40.014 279.112, 36.973 278.427, 35.238 280.162 M 51.352 348.082 C 47.201 349.298, 42.439 354.844, 41.571 359.474 C 40.671 364.271, 44.417 372.500, 47.500 372.500 C 49.144 372.500, 49.506 371.823, 49.531 368.694 C 49.572 363.648, 53.697 361.097, 56.800 364.200 C 58.710 366.110, 58.202 368.837, 55.500 371.187 C 52.014 374.218, 52.298 376, 56.266 376 C 66.781 376, 73.605 363.424, 68.040 354.299 C 64.852 349.070, 57.425 346.303, 51.352 348.082 M 89.499 410.250 C 89.258 410.938, 87.240 422.750, 85.016 436.500 C 80.600 463.787, 79.601 468.046, 74.444 481.568 C 71.389 489.579, 70.572 490.834, 67.438 492.328 C 65.158 493.416, 63.377 495.248, 62.455 497.454 C 59.917 503.527, 60.748 504, 73.952 504 L 85.690 504 95.626 493.750 C 105.718 483.338, 115.652 471.139, 122.485 460.766 L 126.262 455.032 122.502 450.870 C 118.583 446.533, 101.066 423.192, 95 414.225 C 91.401 408.905, 90.260 408.080, 89.499 410.250 M 331.917 419.404 C 331.688 419.625, 324.075 420.591, 315 421.550 C 305.925 422.509, 298.171 423.579, 297.769 423.927 C 297.368 424.276, 299.573 427.922, 302.671 432.031 C 309.465 441.041, 312.977 448.233, 312.990 453.162 C 313.005 458.678, 310.539 470.360, 307.105 481.045 C 304.858 488.037, 303.202 491.380, 300.915 493.545 C 297.119 497.137, 295.929 499.913, 297.170 502.280 C 298 503.864, 299.450 504.030, 310.301 503.780 L 322.500 503.500 329.010 494.833 C 342.597 476.743, 349.331 463.164, 353.120 446.210 L 355.420 435.920 346.460 427.509 C 340.126 421.564, 336.743 419.084, 334.917 419.049 C 333.496 419.022, 332.146 419.182, 331.917 419.404" stroke="none" fill="#040404" fill-rule="evenodd"/></svg>