<svg xmlns="http://www.w3.org/2000/svg" width="512" height="512" viewBox="0 0 512 512" version="1.1">
    <path d="" stroke="none" fill="#080404" fill-rule="evenodd"/>
    <path d="M 167 32.472 C 154.909 34.254, 147.922 35.759, 136.441 39.058 C 75.025 56.702, 25.540 103.082, 7.626 159.791 C 1.685 178.597, 0.567 186.707, 0.567 211 C 0.567 230.655, 0.855 234.828, 2.840 244 C 7.368 264.916, 16.795 287.972, 26.907 302.863 C 29.158 306.178, 31 309.422, 31 310.072 C 31 310.722, 24.474 331.784, 16.498 356.877 C 7.802 384.236, 1.998 404.101, 2.002 406.500 C 2.013 414.470, 8.717 420.989, 16.907 420.996 C 20.679 420.999, 27.881 417.668, 66.907 397.864 L 112.500 374.727 122.136 378.337 C 133.765 382.694, 147.042 386.206, 160.483 388.482 L 170.467 390.172 178.483 397.836 C 207.595 425.667, 247.488 444.127, 290.292 449.575 C 306.364 451.620, 337.515 451.099, 351.500 448.550 C 364.034 446.266, 381.941 441.433, 391.432 437.773 L 399.429 434.689 445.057 457.845 C 484.116 477.666, 491.320 480.999, 495.093 480.996 C 503.302 480.989, 509.989 474.469, 509.996 466.464 C 509.999 464.018, 504.291 444.522, 495.505 416.964 C 487.533 391.959, 481.008 370.952, 481.005 370.281 C 481.002 369.611, 483.066 365.869, 485.590 361.967 C 495.898 346.032, 504.721 324.258, 509.215 303.664 C 511.139 294.848, 511.433 290.515, 511.433 271 C 511.433 251.371, 511.144 247.160, 509.166 238 C 495.914 176.626, 451.593 126.714, 389.864 103.653 C 378.045 99.237, 363.596 95.423, 351.003 93.396 L 341.507 91.867 334.003 84.630 C 305.525 57.166, 264.553 38.034, 222.376 32.505 C 208.595 30.698, 179.155 30.681, 167 32.472 M 181.500 62.016 C 128.839 65.807, 80.425 93.496, 53.077 135.464 C 28.591 173.042, 23.784 219.877, 40.147 261.428 C 44.825 273.306, 48.158 279.386, 56.909 292 C 65.868 304.913, 65.931 304.040, 53.191 343.500 C 47.687 360.550, 43.328 374.649, 43.505 374.830 C 43.683 375.012, 58.452 367.700, 76.327 358.580 C 94.202 349.461, 110.006 342, 111.448 342 C 112.889 342, 119.341 344.087, 125.784 346.638 C 144.497 354.045, 143.372 354.293, 138.285 343.887 C 132.918 332.907, 127.823 317.785, 124.846 304 C 122.873 294.863, 122.575 290.579, 122.557 271 C 122.538 251.227, 122.813 247.227, 124.824 238 C 132.467 202.942, 148.588 173.499, 173.660 148.811 C 190.334 132.393, 202.958 123.241, 222.895 113.119 C 242.564 103.132, 265.250 95.855, 285.825 92.931 L 294.151 91.748 289.825 88.816 C 275.807 79.315, 250.063 69.042, 230.205 65.026 C 221.038 63.172, 198.810 60.837, 193.500 61.171 C 192.400 61.240, 187 61.620, 181.500 62.016 M 303.500 122.009 C 240.486 126.591, 184.330 165.349, 162.631 219.235 C 134.605 288.831, 166.550 366.276, 238 401.954 C 263.569 414.722, 287.113 420.142, 317 420.142 C 342.776 420.142, 361.207 416.518, 386.716 406.434 C 392.884 403.995, 399.105 402, 400.540 402 C 401.975 402, 417.776 409.464, 435.654 418.586 C 453.533 427.709, 468.310 435.021, 468.493 434.836 C 468.676 434.651, 464.122 419.875, 458.373 402 C 450.340 377.024, 448.011 368.565, 448.313 365.461 C 448.602 362.493, 450.458 358.893, 455.315 351.878 C 467.529 334.238, 476.006 314.086, 479.554 294.259 C 481.608 282.778, 481.604 259.307, 479.546 247.741 C 474.462 219.177, 460.077 192.137, 438.471 170.530 C 418.840 150.899, 393.683 136.278, 365.415 128.071 C 348.321 123.108, 322.780 120.607, 303.500 122.009 M 248.241 257.995 C 235.233 265.926, 240.794 285.993, 256 285.993 C 264.532 285.993, 270.993 279.532, 270.993 271 C 270.993 262.468, 264.532 256.007, 256 256.007 C 253.270 256.007, 250.218 256.789, 248.241 257.995 M 308.241 257.995 C 295.233 265.926, 300.794 285.993, 316 285.993 C 324.532 285.993, 330.993 279.532, 330.993 271 C 330.993 262.468, 324.532 256.007, 316 256.007 C 313.270 256.007, 310.218 256.789, 308.241 257.995 M 368.241 257.995 C 355.233 265.926, 360.794 285.993, 376 285.993 C 384.532 285.993, 390.993 279.532, 390.993 271 C 390.993 262.468, 384.532 256.007, 376 256.007 C 373.270 256.007, 370.218 256.789, 368.241 257.995"
          stroke="none" fill="#040404" fill-rule="evenodd"/>
</svg>