<svg xmlns="http://www.w3.org/2000/svg" width="512" height="512" viewBox="0 0 512 512" version="1.1">
    <path d="" stroke="none" fill="#080404" fill-rule="evenodd"/>
    <path d="M 225.798 1.931 C 204.569 8.719, 192.118 27.387, 192.020 52.578 L 192 57.656 183.250 60.962 C 178.438 62.780, 171.415 65.812, 167.644 67.700 L 160.788 71.132 153.473 64.039 C 141.804 52.725, 128.316 47.973, 113.729 50.039 C 99.007 52.124, 93.963 55.375, 73.918 75.700 C 54.514 95.375, 52.092 99.233, 50.039 113.729 C 47.979 128.273, 52.730 141.809, 63.958 153.389 L 70.970 160.620 67.610 167.631 C 65.762 171.486, 62.766 178.547, 60.953 183.321 L 57.656 192 52.578 192.020 C 27.342 192.118, 8.497 204.716, 1.964 225.855 C 0.245 231.418, -0 235.179, -0 256 C -0 276.821, 0.245 280.582, 1.964 286.145 C 8.497 307.284, 27.342 319.882, 52.578 319.980 L 57.656 320 60.953 328.679 C 62.766 333.453, 65.762 340.514, 67.610 344.369 L 70.970 351.380 63.958 358.611 C 49.848 373.163, 45.863 391.893, 53.016 410.040 C 56.152 417.996, 59.619 422.291, 75.673 438.105 C 91.969 454.156, 94.192 455.922, 101.943 458.977 C 120.056 466.117, 138.904 462.088, 153.473 447.961 L 160.788 440.868 167.644 444.300 C 171.415 446.188, 178.438 449.220, 183.250 451.038 L 192 454.344 192.020 459.422 C 192.118 484.658, 204.716 503.503, 225.855 510.036 C 231.418 511.755, 235.179 512, 256 512 C 276.821 512, 280.582 511.755, 286.145 510.036 C 307.284 503.503, 319.882 484.658, 319.980 459.422 L 320 454.344 328.679 451.047 C 333.453 449.234, 340.502 446.244, 344.343 444.403 L 351.327 441.056 358.795 448.151 C 363.757 452.863, 368.420 456.223, 372.685 458.157 C 387.466 464.858, 406.273 463.202, 419.364 454.046 C 425.148 450.001, 452.277 422.346, 455.215 417.500 C 463.525 403.794, 464.594 386.883, 458.061 372.475 C 455.986 367.897, 452.882 363.603, 448.042 358.611 L 441.030 351.380 444.390 344.369 C 446.238 340.514, 449.234 333.453, 451.047 328.679 L 454.344 320 459.422 319.980 C 483.959 319.884, 503.397 307.324, 509.521 287.605 C 510.393 284.797, 511.533 281.719, 512.053 280.764 C 513.122 278.803, 513.380 229.287, 512.315 230.351 C 511.939 230.728, 510.869 228.574, 509.938 225.566 C 503.490 204.723, 484.507 192.118, 459.422 192.020 L 454.344 192 451.047 183.321 C 449.234 178.547, 446.238 171.486, 444.390 167.631 L 441.030 160.620 448.042 153.389 C 462.065 138.927, 466.098 120.009, 458.999 101.997 C 455.847 94.001, 452.397 89.725, 436.327 73.895 C 420.045 57.857, 417.805 56.076, 410.094 53.037 C 391.891 45.862, 373.181 49.831, 358.611 63.958 L 351.380 70.970 344.369 67.610 C 340.514 65.762, 333.453 62.766, 328.679 60.953 L 320 57.656 319.980 52.578 C 319.882 27.342, 307.284 8.497, 286.145 1.964 C 280.546 0.234, 276.915 0.006, 255.645 0.054 C 235.133 0.099, 230.642 0.382, 225.798 1.931 M 234.684 31.449 C 225.198 34.832, 223.051 39.868, 223.022 58.800 C 222.992 78.439, 221.350 81.205, 207.213 85.436 C 195.292 89.004, 181.769 94.542, 171.376 100.111 C 161.524 105.390, 156.325 106.282, 151.200 103.572 C 149.715 102.786, 144.450 98.012, 139.500 92.963 C 122.575 75.699, 117.565 75.681, 99.785 92.814 C 85.783 106.307, 81.374 111.828, 80.508 116.952 C 79.344 123.839, 81.384 127.585, 92.515 139 C 98.146 144.775, 103.258 150.483, 103.876 151.684 C 106.212 156.224, 105.215 161.902, 100.592 170.399 C 94.847 180.955, 89.369 194.196, 85.924 205.850 C 81.332 221.386, 78.797 222.991, 58.800 223.022 C 39.868 223.051, 34.832 225.198, 31.449 234.684 C 29.552 240.002, 29.552 271.998, 31.449 277.316 C 34.832 286.802, 39.868 288.949, 58.800 288.978 C 78.420 289.008, 81.429 290.795, 85.513 304.844 C 88.854 316.335, 94.465 330.087, 100.111 340.624 C 105.390 350.476, 106.282 355.675, 103.572 360.800 C 102.786 362.285, 98.012 367.550, 92.963 372.500 C 75.699 389.425, 75.681 394.435, 92.814 412.215 C 106.307 426.217, 111.828 430.626, 116.952 431.492 C 123.839 432.656, 127.585 430.616, 139 419.485 C 144.775 413.854, 150.483 408.742, 151.684 408.124 C 156.342 405.728, 161.840 406.779, 171.376 411.889 C 181.913 417.535, 195.665 423.146, 207.156 426.487 C 221.205 430.571, 222.992 433.580, 223.022 453.200 C 223.051 472.132, 225.198 477.168, 234.684 480.551 C 240.002 482.448, 271.998 482.448, 277.316 480.551 C 286.802 477.168, 288.949 472.132, 288.978 453.200 C 289.008 433.580, 290.795 430.571, 304.844 426.487 C 316.335 423.146, 330.087 417.535, 340.624 411.889 C 350.160 406.779, 355.658 405.728, 360.316 408.124 C 361.517 408.742, 367.225 413.854, 373 419.485 C 391.441 437.467, 395.462 436.834, 419.186 412.215 C 429.667 401.339, 432.022 397.523, 431.972 391.500 C 431.937 387.162, 427.811 381.102, 419.037 372.500 C 413.988 367.550, 409.214 362.285, 408.428 360.800 C 405.718 355.675, 406.610 350.476, 411.889 340.624 C 417.458 330.231, 422.996 316.708, 426.564 304.787 C 430.795 290.650, 433.561 289.008, 453.200 288.978 C 472.132 288.949, 477.168 286.802, 480.551 277.316 C 482.448 271.998, 482.448 240.002, 480.551 234.684 C 477.168 225.198, 472.132 223.051, 453.200 223.022 C 433.561 222.992, 430.795 221.350, 426.564 207.213 C 422.996 195.292, 417.458 181.769, 411.889 171.376 C 406.610 161.524, 405.718 156.325, 408.428 151.200 C 409.214 149.715, 413.988 144.450, 419.037 139.500 C 436.301 122.575, 436.319 117.565, 419.186 99.785 C 405.693 85.783, 400.172 81.374, 395.048 80.508 C 388.161 79.344, 384.415 81.384, 373 92.515 C 367.225 98.146, 361.517 103.258, 360.316 103.876 C 355.776 106.212, 350.098 105.215, 341.601 100.592 C 331.045 94.847, 317.804 89.369, 306.150 85.924 C 290.614 81.332, 289.009 78.797, 288.978 58.800 C 288.949 39.868, 286.802 34.832, 277.316 31.449 C 271.998 29.552, 240.002 29.552, 234.684 31.449 M 241.500 145.127 C 217.840 148.083, 193.433 160.408, 176.254 178.076 C 167.154 187.436, 161.621 195.210, 156.023 206.500 C 140.336 238.141, 140.336 273.859, 156.023 305.500 C 183.474 360.867, 250.187 383.396, 305.500 355.978 C 317.913 349.825, 326.190 343.640, 336.797 332.591 C 388.762 278.464, 372.990 189.484, 305.500 156.023 C 285.249 145.983, 263.836 142.337, 241.500 145.127 M 244.500 175.715 C 231.693 177.486, 215.066 184.889, 204.833 193.377 C 195.645 200.998, 188.671 209.865, 183.500 220.500 C 177.876 232.067, 176.079 239.027, 175.367 252 C 173.592 284.338, 191.241 314.185, 220.675 328.625 C 260.686 348.252, 308.959 331.575, 328.639 291.325 C 348.244 251.229, 331.623 203.144, 291.325 183.375 C 277.444 176.566, 259.532 173.636, 244.500 175.715 M 0.435 256 C 0.435 270.025, 0.575 275.762, 0.747 268.750 C 0.919 261.738, 0.919 250.262, 0.747 243.250 C 0.575 236.238, 0.435 241.975, 0.435 256"
          stroke="none" fill="#040404" fill-rule="evenodd"/>
</svg>